<svg width="34px" height="42px" viewBox="0 0 34 42" version="1.1" xmlns="http://www.w3.org/2000/svg" xmlns:xlink="http://www.w3.org/1999/xlink">
    <g id="Page-1" stroke="none" stroke-width="1" fill="none" fill-rule="evenodd">
        <g id="logout-1" transform="translate(17.000000, 21.000000) scale(-1, 1) translate(-17.000000, -21.000000) translate(-8.000000, -4.000000)">
            <polygon id="Path" points="0 0 50 0 50 50 0 50"></polygon>
            <path d="M37.5,45.8333333 L14.5833333,45.8333333 C12.2854167,45.8333333 10.4166667,43.9645833 10.4166667,41.6666667 L10.4166667,35.4166667 L14.5833333,35.4166667 L14.5833333,41.6666667 L37.5,41.6666667 L37.5,8.33333333 L14.5833333,8.33333333 L14.5833333,14.5833333 L10.4166667,14.5833333 L10.4166667,8.33333333 C10.4166667,6.0375 12.2854167,4.16666667 14.5833333,4.16666667 L37.5,4.16666667 C39.7979167,4.16666667 41.6666667,6.0375 41.6666667,8.33333333 L41.6666667,41.6666667 C41.6666667,43.9645833 39.7979167,45.8333333 37.5,45.8333333 Z" id="Path" fill="#FFFFFF" fill-rule="nonzero"></path>
            <polygon id="Path" fill="#FFFFFF" fill-rule="nonzero" points="24.3895833 15.1916667 21.44375 18.1416667 26.2291667 22.9166667 8.33333333 22.9166667 8.33333333 27.0833333 26.2125 27.0833333 21.4416667 31.8625 24.3916667 34.8041667 34.1958333 24.98125"></polygon>
        </g>
    </g>
</svg>