<svg xmlns="http://www.w3.org/2000/svg" viewBox="0 0 640 640"><!--!Font Awesome Pro v7.0.0 by @fontawesome - https://fontawesome.com License - https://fontawesome.com/license (Commercial License) Copyright 2025 Fonticons, Inc.--><path fill="#FFD43B" d="M406.6 105.4L397.2 96L63.9 96L63.9 544L289.3 544C282.4 528.9 277.4 512.8 274.5 496L111.8 496L111.8 144L159.8 144L159.8 272L383.8 272L383.8 150.6L463.8 230.6L463.8 272C480.4 272 496.5 274.1 511.8 278L511.8 210.7L406.4 105.3zM272.8 446.2C276.9 402 295.9 362.1 324.9 331.7C314.5 324.3 301.8 320 288 320C252.7 320 224 348.7 224 384C224 414.1 244.8 439.4 272.8 446.2zM208 144L336 144L336 224L208 224L208 144zM464 608C543.5 608 608 543.5 608 464C608 384.5 543.5 320 464 320C384.5 320 320 384.5 320 464C320 543.5 384.5 608 464 608zM519.3 431.3L486.6 464C512 489.3 526.6 504 530.6 508L508 530.6C504 526.6 489.4 512 464 486.6C438.7 512 424 526.6 420 530.6L397.4 508C401.4 504 416 489.4 441.4 464C416 438.7 401.4 424 397.4 420L420 397.4C424 401.4 438.6 416 464 441.4C489.3 416 504 401.4 508 397.4L530.6 420L519.3 431.3z"/></svg>