<svg xmlns="http://www.w3.org/2000/svg" viewBox="0 0 640 640"><!--!Font Awesome Pro v7.0.0 by @fontawesome - https://fontawesome.com License - https://fontawesome.com/license (Commercial License) Copyright 2025 Fonticons, Inc.--><path fill="#ffffff" d="M406.6 105.4L397.2 96L63.9 96L63.9 544L281.5 544L289.5 496L111.9 496L111.9 144L159.9 144L159.9 272L383.9 272L383.9 150.6L463.9 230.6L463.9 315.6L511.9 267.6L511.9 210.7L406.5 105.3zM208 144L336 144L336 224L208 224L208 144zM352 384C352 348.7 323.3 320 288 320C252.7 320 224 348.7 224 384C224 419.3 252.7 448 288 448C323.3 448 352 419.3 352 384zM544 304L491.2 356.8L571.2 436.8L624 384L544 304zM336 512L320 608L416 592L548.6 459.4L468.6 379.4L336 512z"/></svg>