<svg xmlns="http://www.w3.org/2000/svg" viewBox="0 0 640 640"><!--!Font Awesome Pro v7.0.0 by @fontawesome - https://fontawesome.com License - https://fontawesome.com/license (Commercial License) Copyright 2025 Fonticons, Inc.--><path fill="#ffffff" d="M438.6 105.4L429.3 96L96 96L96 544L544 544L544 210.7L438.6 105.4zM416 150.6L496 230.6L496 496L144 496L144 144L192 144L192 272L416 272L416 150.6zM240 144L368 144L368 224L240 224L240 144zM384 384C384 348.7 355.3 320 320 320C284.7 320 256 348.7 256 384C256 419.3 284.7 448 320 448C355.3 448 384 419.3 384 384z"/></svg>