<svg xmlns="http://www.w3.org/2000/svg" viewBox="0 0 640 640"><!--!Font Awesome Pro v7.0.0 by @fontawesome - https://fontawesome.com License - https://fontawesome.com/license (Commercial License) Copyright 2025 Fonticons, Inc.--><path fill="#ffffff" d="M320.4 55.2L336.4 69.6L568.4 277.6L586.3 293.6L554.3 329.3C540.7 317.1 532.1 309.4 528.5 306.1L528.5 575.4L112.5 575.4L112.5 306.1C108.8 309.4 100.2 317.1 86.7 329.3L54.7 293.6L72.6 277.6L304.6 69.6L320.6 55.2zM320.4 119.7L160.4 263.2L160.4 527.5L224.4 527.5L224.4 351.5L416.4 351.5L416.4 527.5L480.4 527.5L480.4 263.2L320.4 119.8zM272.4 527.5L368.4 527.5L368.4 399.5L272.4 399.5L272.4 527.5z"/></svg>