<svg xmlns="http://www.w3.org/2000/svg" viewBox="0 0 640 640"><!--!Font Awesome Pro v7.0.0 by @fontawesome - https://fontawesome.com License - https://fontawesome.com/license (Commercial License) Copyright 2025 Fonticons, Inc.--><path fill="#ffffff" d="M352 64L352 128L288 128L288 64L352 64zM433.1 478.4L478.4 433.1L523.7 478.4L478.4 523.7L433.1 478.4zM288 512L352 512L352 576L288 576L288 512zM116.4 161.6L161.7 116.3L207 161.6L161.7 206.9L116.4 161.6zM128 288L128 352L64 352L64 288L128 288zM116.4 478.4L161.7 433.1L207 478.4L161.7 523.7L116.4 478.4zM576 288L576 352L512 352L512 288L576 288z"/></svg>