<svg xmlns="http://www.w3.org/2000/svg" viewBox="0 0 640 640"><!--!Font Awesome Pro v7.0.0 by @fontawesome - https://fontawesome.com License - https://fontawesome.com/license (Commercial License) Copyright 2025 Fonticons, Inc.--><path fill="#feffff" d="M272 64L272 160L368 160L368 64L272 64zM64 272L64 368L160 368L160 272L64 272zM272 576L368 576L368 480L272 480L272 576zM576 272L480 272L480 368L576 368L576 272zM105 467.1L172.9 535L240.8 467.1L172.9 399.2L105 467.1zM467 535L534.9 467.1L467 399.2L399.1 467.1L467 535zM105 172.9L172.9 240.8L240.8 172.9L172.9 105L105 172.9z"/></svg>