<svg xmlns="http://www.w3.org/2000/svg" viewBox="0 0 640 640"><!--!Font Awesome Pro v7.0.0 by @fontawesome - https://fontawesome.com License - https://fontawesome.com/license (Commercial License) Copyright 2025 Fonticons, Inc.--><path fill="#ffffff" d="M400 48L240 48L216 112L96 112L96 160L544 160L544 112L424 112L400 48zM128 208L128 576L512 576L512 208L464 208L464 528L176 528L176 208L128 208zM288 280L288 256L240 256L240 480L288 480L288 280zM400 280L400 256L352 256L352 480L400 480L400 280z"/></svg>