<?xml version="1.0" encoding="UTF-8"?>
<svg version="1.1" viewBox="0 0 448 512" xmlns="http://www.w3.org/2000/svg" xmlns:xlink="http://www.w3.org/1999/xlink">
    <!--Generated by IJSVG (https://github.com/iconjar/IJSVG)-->
    <path d="M268,416h24h-5.24537e-07c6.62742,2.89694e-07 12,-5.37258 12,-12v-216v0c0,-6.62742 -5.37258,-12 -12,-12h-24h-5.24537e-07c-6.62742,2.89694e-07 -12,5.37258 -12,12c0,0 0,0 0,0v216l1.13687e-13,1.81195e-06c1.00071e-06,6.62742 5.37258,12 12,12Zm164,-336h-82.41l-34,-56.7l1.50108e-06,2.50122e-06c-8.67948,-14.4625 -24.313,-23.308 -41.18,-23.3h-100.82l2.5966e-06,1.54898e-10c-16.8599,-0.0010062 -32.4842,8.84365 -41.16,23.3l-34.02,56.7h-82.41h-6.99382e-07c-8.83656,3.86258e-07 -16,7.16344 -16,16c0,0 0,0 0,0v16l2.27374e-13,-2.41593e-06c-1.33428e-06,8.83656 7.16344,16 16,16h16v336l5.68434e-13,7.2478e-06c4.00285e-06,26.5097 21.4903,48 48,48h288h-2.09815e-06c26.5097,1.15877e-06 48,-21.4903 48,-48v-336h16h-6.99382e-07c8.83656,3.86258e-07 16,-7.16344 16,-16v-16v0c0,-8.83656 -7.16344,-16 -16,-16Zm-260.16,-29.09l-4.64698e-07,7.73474e-07c1.08784,-1.81068 3.04767,-2.91593 5.16,-2.91h94l-1.19635e-07,1.36708e-10c2.10876,-0.00240986 4.06399,1.10239 5.15,2.91l17.46,29.09h-139.22Zm196.16,413.09h-288v-336h288Zm-212,-48h24h-5.24537e-07c6.62742,2.89694e-07 12,-5.37258 12,-12v-216v0c0,-6.62742 -5.37258,-12 -12,-12h-24h-5.24537e-07c-6.62742,2.89694e-07 -12,5.37258 -12,12c0,0 0,0 0,0v216l1.42109e-13,1.81195e-06c1.00071e-06,6.62742 5.37258,12 12,12Z" fill="#FFF"></path>
</svg>